<?xml version="1.0" encoding="utf-8"?>
<svg version="1.1" xmlns:xlink="http://www.w3.org/1999/xlink" width="28px" height="24px" xmlns="http://www.w3.org/2000/svg">
  <g transform="matrix(1 0 0 1 -182 -169 )">
    <path d="M 27.7517730593418 15.413818539464  C 27.9900709316822 14.9023850600105  27.9503546293218 14.3073518564052  27.6475177401928 13.8303417656596  C 27.2900709316822 13.3041553970986  26.6049645487035 13.02876811455  25.6120567278923 13.0287681433643  C 25.5749640826076 13.0287681433643  25.5376041558539 13.0297591893557  25.5 13.0317093182923  L 25.5 3.03673469387755  C 25.4949579733456 1.42590265925481  24.1386554621849 0.116797488226058  22.469747889312 0.489795918367347  L 10.6310924369748 0.489795918367347  C 8.96218486410189 0.116797488226058  7.60588235294118 1.42590265925481  8 3.03673469387755  L 8 12.1651961707351  C 6.45871496336144 12.5199386676984  5.38617215217502 13.0988648807038  4.45815603806516 13.8795180722891  C 0.129078033577131 17.5234816818294  0.119148936170213 17.7791984359632  0.104255319148939 18.138185385035  C 0.0943262508311178 18.3299729434319  0.168794335937506 18.5119252520285  0.302836889128996 18.6496188933028  C 0.436879442320483 18.7823948952698  1.737588671875 20.0462257192033  3.01347518700133 21.2707155151217  C 5.73404255319149 23.8819768871404  5.77872340425532 23.8819768871404  6.11134752742686 23.8819768871404  C 6.40425531914894 23.8819768871404  6.56808510638298 23.7541185244806  7.35744680851064 23.1541676815681  C 7.77943263380984 22.8296041212042  8.63829787234042 22.1755593611692  8.93617021276596 22.0477009985093  L 9.74539008061835 22.0624538876168  C 19.4312056931516 22.2689943351211  19.5652482463431 22.1411359724613  19.8531914893617 21.8559134401125  C 19.9524822598072 21.7673961054678  20.7468085106383 21.1526924022621  21.5907801321476 20.4986476422271  C 27.3099290683178 16.072780909992  27.6276595744681 15.7285468212134  27.7517730593418 15.413818539464  Z M 15.6780141747008 11.7551020408163  L 10.2418439619348 11.7551020408163  C 10.1502021620073 11.755952400835  10.0586902535692 11.7581629244262  10 11.7617240734415  L 10 3.03673469387755  C 9.62268908547794 2.50141288234645  10.076470598083 2.06342230149872  10.6310924369748 2.44897959183673  L 22.469747889312 2.44897959183673  C 23.0243697282038 2.06342230149872  23.4781512408088 2.50141288234645  23 3.03673469387755  L 23 13.7647425456752  C 22.6730732536396 14.25257603579  21.8375230780437 14.9072617239643  21.0992907704455 15.4875829850012  C 20.5879432430186 15.8859109909024  19.9028368600399 16.4268502485708  19.6595744680851 16.6530612244898  L 14.0297872340426 16.6530612244898  C 13.8560283784907 16.4366855271853  13.6921985912566 16.3432505532333  13.533333323637 16.235062690174  L 14.2829787234043 16.1268748559288  C 14.9978723404255 16.0285222714839  15.6730496550864 15.935087297532  16.0453900806183 15.8613228519947  C 17.068085106383 15.6695352935979  17.931914893617 14.7204327514138  17.931914893617 13.7959183769517  C 17.931914893617 12.8714040024896  17.3411347614694 11.774772569231  15.6780141747008 11.7551020408163  Z M 20.8970588235294 4.98658893039359  L 13.0539215590533 4.98658893039359  C 12.5147058823529 4.98658893039359  12.0735294117647 5.40641400327988  12.0735294117647 5.91953352769679  C 12.0735294117647 6.4326530521137  12.5147058823529 6.852478125  13.0539215590533 6.85714285714286  L 20.8970588235294 6.85714285714286  C 21.4362745002298 6.852478125  21.877450970818 6.4326530521137  21.877450970818 5.91953352769679  C 21.877450970818 5.40641400327988  21.4362745002298 4.98658893039359  20.8970588235294 4.98658893039359  Z M 10 11.7816108558376  C 9.92601670861199 11.7860999442514  9.90418840005329 11.7728484579447  10 11.7816108558376  Z " fill-rule="nonzero" fill="#ffffff" stroke="none" transform="matrix(1 0 0 1 182 169 )" />
  </g>
</svg>